PathFileType	4	(X/Y/Z)	C:\Users\JDoe\SprintMotion.trc
DataRate	CameraRate	NumFrames	NumMarkers	Units	OrigDataRate	OrigDataStartFrame	OrigNumFrames
250.00	250.00	       4	59	mm	250.00	592	       788
Frame#	Time	C7			T8			T12			R.AA			R.AC			R.Scapula			R.HeadHum			R.Hum			R.Epi.Med			R.Epi.Lat			R.Ulna			R.Wrist.Uln			R.Wrist.Rad			R.Hand			L.AA			L.AC			L.Scapula			L.HeadHum			L.Hum			L.Epi.Med			L.Epi.Lat			L.Ulna			L.Wrist.Uln			L.Wrist.Rad			L.Hand			Tete.H			Tete.D			Tete.G			Sacral			R.EIAS			LEIAS			R.Crete			L.Crete			R.GT			R.Hip			R.Knee.Med			R.Knee.Lat			R.TTA			R.Fibula			R.Ankle.Med			R.Ankle.Lat			R.Calca			R.Foot.Med			R.Foot.Lat			L.GT			L.Hip			L.Knee.Med			L.Knee.Lat			L.TTA			L.Fibula			L.Ankle.Med			L.Ankle.Lat			L.Calca			L.Foot.Med			L.Foot.Lat			StartG			StartD			StartAvt			StartArr			
		X1	Y1	Z1	X2	Y2	Z2	X3	Y3	Z3	X4	Y4	Z4	X5	Y5	Z5	X6	Y6	Z6	X7	Y7	Z7	X8	Y8	Z8	X9	Y9	Z9	X10	Y10	Z10	X11	Y11	Z11	X12	Y12	Z12	X13	Y13	Z13	X14	Y14	Z14	X15	Y15	Z15	X16	Y16	Z16	X17	Y17	Z17	X18	Y18	Z18	X19	Y19	Z19	X20	Y20	Z20	X21	Y21	Z21	X22	Y22	Z22	X23	Y23	Z23	X24	Y24	Z24	X25	Y25	Z25	X26	Y26	Z26	X27	Y27	Z27	X28	Y28	Z28	X29	Y29	Z29	X30	Y30	Z30	X31	Y31	Z31	X32	Y32	Z32	X33	Y33	Z33	X34	Y34	Z34	X35	Y35	Z35	X36	Y36	Z36	X37	Y37	Z37	X38	Y38	Z38	X39	Y39	Z39	X40	Y40	Z40	X41	Y41	Z41	X42	Y42	Z42	X43	Y43	Z43	X44	Y44	Z44	X45	Y45	Z45	X46	Y46	Z46	X47	Y47	Z47	X48	Y48	Z48	X49	Y49	Z49	X50	Y50	Z50	X51	Y51	Z51	X52	Y52	Z52	X53	Y53	Z53	X54	Y54	Z54	X55	Y55	Z55	X56	Y56	Z56	X57	Y57	Z57	X58	Y58	Z58	X59	Y59	Z59	

592	2.364	230.67673	87.07930	761.58063	58.76022	83.79868	886.97223	-81.45756	81.48785	922.26080	217.12920	-23.88461	779.21466	161.79533	-11.32905	643.12158	218.05057	-52.76995	694.26111	193.51552	-141.88229	648.27966	94.15300	-202.11928	557.08820	-22.45049	-174.42630	487.08511	71.02826	-209.83215	468.50156	32.97029	-234.55257	327.49106	-31.98221	-248.09000	196.07962	2.55923	-199.85999	190.72733	-25.08925	-253.34303	148.39629	198.81334	208.57877	781.02924	154.12312	177.71143	637.79877	195.66589	236.13249	679.68903	169.15326	312.36420	623.90039	54.28188	361.19739	559.30920	-8.36595	312.97919	454.34259	76.21552	362.62103	447.83835	-11.30968	389.50897	333.09076	-46.72049	389.82401	166.52817	-1.80860	347.57849	144.05327	-27.71209	398.85236	120.22543	448.79123	103.91682	704.30463	434.80087	95.78751	591.12018	366.44614	97.52332	786.10510	-281.71899	99.19923	930.28363	-194.62067	-10.32437	745.20746	-168.85674	141.68225	737.10223	-184.06870	-69.89687	864.24115	-162.92409	227.29187	827.55347	-324.76459	-86.35147	835.88672	-259.19455	-58.17560	615.86780	-467.86298	37.43973	413.32031	-449.78784	-80.50632	418.45609	-492.74292	-15.83397	312.59558	-545.78430	-89.04826	335.14621	-799.76831	45.17028	209.38925	-812.63013	-43.37358	225.07829	-865.60986	10.53447	264.22443	-773.02100	-6.27122	52.77343	-781.72418	-65.04393	61.62617	-259.27966	263.70029	807.33618	-262.69351	271.28564	636.89191	-242.57516	124.87067	401.27628	-218.02054	230.09045	391.66193	-246.41255	177.20735	288.26208	-355.84753	244.75108	318.11307	-559.42804	120.29720	200.68431	-586.97168	210.30186	213.78668	-638.37061	156.61298	251.42242	-512.86023	140.79758	56.08997	-518.20166	214.43515	63.41097	-600.33997	267.37442	27.05668	-934.28400	-121.69176	33.28476	-522.33820	72.87596	45.67048	-1122.39880	77.34703	54.79683	
593	2.368	235.92204	88.52074	766.88342	62.33209	84.49297	890.49298	-78.25035	81.76053	923.80133	222.45120	-22.76774	784.74432	168.04427	-11.02931	648.23889	224.04596	-52.18262	699.62067	198.95830	-142.31883	654.34882	98.12482	-204.68721	565.81476	-20.33454	-179.56401	498.24692	73.22331	-213.80775	477.88373	33.60316	-238.67752	337.66977	-32.31172	-252.45116	206.68893	1.26346	-203.45082	201.53819	-26.64933	-256.40521	157.86371	203.23456	209.76205	785.81165	159.56343	178.42720	642.35229	200.49881	237.20723	684.26764	173.31328	313.78616	628.60248	58.18113	363.08762	565.05164	-5.80010	316.10800	460.62595	78.99657	365.33905	453.68716	-8.93733	392.62485	339.23807	-44.29173	393.20895	172.52127	0.33000	350.55185	150.19505	-26.39537	401.35995	124.86240	454.42297	105.61932	712.49738	441.97995	97.15983	599.13000	370.98654	99.23655	793.21277	-278.26224	99.14761	929.54932	-189.42361	-10.54652	745.77545	-164.14026	141.48474	737.56616	-179.84271	-69.89806	864.95380	-159.27946	227.28844	827.88092	-320.49002	-86.43209	835.48389	-255.11861	-58.92849	614.92035	-465.69052	36.72691	413.19650	-448.10760	-81.55537	418.91733	-491.30383	-17.28624	312.90594	-544.51294	-90.11733	335.97894	-797.92700	44.30304	209.38490	-811.48077	-44.10196	224.91292	-863.72455	9.97538	264.53546	-773.21527	-6.54776	52.38320	-782.19794	-65.29172	61.07185	-255.58307	262.94086	806.21716	-259.44562	270.81299	635.51434	-241.29932	124.64752	399.64243	-216.89807	229.90590	389.83594	-245.83876	177.00729	286.52133	-355.03775	244.68407	316.86029	-559.16907	120.37776	200.41451	-586.84363	210.35751	213.62651	-638.20172	156.64622	251.41306	-512.72040	141.16917	55.92414	-518.36298	214.82191	63.25362	-600.39398	267.36371	27.01834	-934.23657	-121.68463	33.29880	-522.34833	72.91598	45.65005	-1122.42419	77.30707	54.84201	
594	2.372	241.39687	89.99924	772.32782	66.09768	85.16823	894.00024	-74.85271	81.99331	925.24457	228.03908	-21.57933	790.46710	174.69748	-10.67143	653.51154	230.40877	-51.49644	705.24713	204.71797	-142.65665	660.75299	102.48897	-207.24022	575.01947	-17.92756	-184.85831	510.23492	75.62113	-217.83165	487.87659	34.23468	-242.79810	348.57248	-32.88525	-256.73947	218.16228	-0.28305	-206.99565	213.21582	-28.55927	-259.40302	168.30069	207.97571	210.93663	790.81543	165.37483	179.17744	647.10931	205.72064	238.26576	689.12457	177.83072	315.27020	633.64813	62.47612	365.10278	571.20123	-3.02014	319.49396	467.42603	82.03250	368.21951	459.95026	-6.36284	395.82260	345.80228	-41.63007	396.40814	178.90286	2.70907	353.31882	156.80685	-24.81303	403.56473	129.91393	460.32306	107.38408	720.86530	449.42831	98.55521	607.33893	375.80774	101.04077	800.49500	-274.54083	99.05526	928.71973	-183.97044	-10.74496	746.21509	-159.14279	141.30737	737.92267	-175.36649	-69.89797	865.51886	-155.34210	227.21860	828.11377	-315.94666	-86.56037	834.98438	-250.63789	-59.68990	613.93140	-463.07004	35.94754	412.93463	-446.01599	-82.60865	419.30124	-489.48148	-18.84537	313.10394	-542.85992	-91.24398	336.81448	-795.69556	43.29195	209.36226	-810.02014	-44.94399	224.76157	-861.40955	9.30558	264.92053	-773.34778	-6.84292	51.97781	-782.67773	-65.54498	60.50788	-251.64600	262.17407	805.02057	-256.04077	270.29874	634.02643	-239.94888	124.35184	397.93137	-215.69322	229.62944	387.90948	-245.20541	176.71837	284.69638	-354.15738	244.54214	315.52820	-558.88745	120.43839	200.09164	-586.64703	210.38068	213.44498	-637.97119	156.66112	251.40010	-512.60498	141.49525	55.70127	-518.49823	215.17715	63.05731	-600.43237	267.35831	26.96722	-934.16840	-121.67649	33.32996	-522.35272	72.94296	45.63424	-1122.43848	77.27132	54.88909	
595	2.376	247.08617	91.49939	777.90436	70.04710	85.81448	897.49164	-71.27197	82.17983	926.58826	233.86780	-20.33291	796.36420	181.73108	-10.26244	658.92249	237.11021	-50.72539	711.11993	210.75963	-142.88432	667.45715	107.23008	-209.73134	584.64594	-15.21932	-190.24055	523.00549	78.21707	-221.83173	498.43759	34.86023	-246.86333	360.16678	-33.71317	-260.93527	230.49040	-2.09054	-210.47939	225.73636	-30.82760	-262.34534	179.71765	213.02034	212.09819	796.03485	171.53342	179.96982	652.06500	211.30942	239.31271	694.25696	182.67946	316.80963	639.03467	67.13342	367.20853	577.74280	-0.02583	323.06519	474.71667	85.31233	371.20300	466.60284	-3.58473	399.02307	352.74829	-38.71132	399.31735	185.63589	5.36841	355.78873	163.85263	-22.91257	405.38321	135.37524	466.47656	109.20731	729.37714	457.11496	99.96928	615.71802	380.90918	102.93267	807.93335	-270.56308	98.93234	927.79089	-178.27461	-10.92773	746.52808	-153.86650	141.14020	738.16687	-170.65857	-69.90001	865.94019	-151.10788	227.08398	828.24261	-311.15182	-86.72969	834.38379	-245.75632	-60.46684	612.89301	-459.97913	35.10151	412.51776	-443.47614	-83.65606	419.57956	-487.24283	-20.49667	313.16580	-540.78992	-92.41839	337.62445	-793.05176	42.14030	209.32492	-808.21594	-45.89662	224.63768	-858.62439	8.52585	265.39542	-773.39648	-7.16592	51.56622	-783.16052	-65.80725	59.95084	-247.47871	261.40341	803.72638	-252.48943	269.73956	632.41119	-238.54510	123.97903	396.14340	-214.42024	229.26273	385.87949	-244.53117	176.32959	282.78705	-353.22318	244.32166	314.10382	-558.60815	120.47629	199.73033	-586.39984	210.37231	213.25116	-637.69922	156.65753	251.38591	-512.52142	141.77631	55.43415	-518.61261	215.49850	62.83246	-600.45685	267.36029	26.91047	-934.08270	-121.66642	33.38435	-522.35211	72.95779	45.62754	-1122.44312	77.24386	54.93611	
